<svg width="130" height="109" viewBox="0 0 130 109" fill="none" xmlns="http://www.w3.org/2000/svg">
<rect x="2" y="2" width="126" height="105" fill="#1A293D" stroke="#EACFB1" stroke-width="4"/>
<circle cx="114" cy="85" r="4" fill="#F3E5D0"/>
<path d="M21.7032 20.7709C21.3003 18.8757 23.5579 17.5723 24.9977 18.8687L27.7124 21.313C28.3563 21.8928 29.3003 21.992 30.0507 21.5588L33.2142 19.7323C34.8921 18.7636 36.8293 20.5079 36.0413 22.2779L34.5555 25.615C34.2031 26.4065 34.4004 27.335 35.0443 27.9148L37.759 30.3591C39.1988 31.6555 38.1385 34.0369 36.2117 33.8344L32.5788 33.4526C31.717 33.362 30.895 33.8366 30.5426 34.6281L29.0568 37.9653C28.2688 39.7352 25.6762 39.4627 25.2734 37.5676L24.5139 33.9945C24.3338 33.147 23.6284 32.5118 22.7667 32.4213L19.1338 32.0394C17.2069 31.8369 16.6649 29.2871 18.3428 28.3183L21.5064 26.4919C22.2567 26.0586 22.6428 25.1915 22.4627 24.344L21.7032 20.7709Z" fill="#F7BF6C"/>
<circle cx="55" cy="86" r="4" fill="#F3E5D0"/>
<circle cx="69" cy="34" r="4" fill="#F3E5D0"/>
<circle cx="86" cy="81" r="4" fill="#F3E5D0"/>
<circle cx="102" cy="55" r="4" fill="#F3E5D0"/>
<line x1="68.4826" y1="36.1307" x2="55.4826" y2="84.1307" stroke="#F3E5D0"/>
<line x1="56.9293" y1="85.505" x2="84.9293" y2="81.505" stroke="#F3E5D0"/>
<line x1="86.576" y1="79.735" x2="101.576" y2="55.735" stroke="#F3E5D0"/>
<line x1="102.465" y1="55.8172" x2="113.465" y2="83.8172" stroke="#F3E5D0"/>
</svg>
