<svg width="82" height="79" viewBox="0 0 82 79" fill="none" xmlns="http://www.w3.org/2000/svg">
<path d="M36.2447 3.63526C37.7415 -0.971296 44.2585 -0.971304 45.7553 3.63525L52.0012 22.8582C52.6706 24.9183 54.5903 26.3131 56.7565 26.3131H76.9686C81.8122 26.3131 83.8261 32.5112 79.9076 35.3582L63.5556 47.2386C61.8031 48.5118 61.0699 50.7686 61.7392 52.8288L67.9851 72.0517C69.4819 76.6582 64.2095 80.4888 60.2909 77.6418L43.9389 65.7614C42.1865 64.4882 39.8135 64.4882 38.0611 65.7614L21.7091 77.6418C17.7905 80.4888 12.5181 76.6582 14.0149 72.0517L20.2608 52.8288C20.9302 50.7686 20.1969 48.5118 18.4444 47.2386L2.09244 35.3582C-1.82612 32.5112 0.187744 26.3131 5.03136 26.3131H25.2435C27.4097 26.3131 29.3294 24.9183 29.9988 22.8582L36.2447 3.63526Z" fill="#F7BF6C"/>
</svg>
