<svg width="28" height="28" viewBox="0 0 28 28" fill="none" xmlns="http://www.w3.org/2000/svg">
<circle cx="14" cy="14" r="9" fill="#F7BF6C"/>
<rect x="13" width="2" height="4" rx="1" fill="#F7BF6C"/>
<rect x="13" y="24" width="2" height="4" rx="1" fill="#F7BF6C"/>
<rect x="24.4497" y="23.3495" width="2" height="3.88889" rx="1" transform="rotate(135 24.4497 23.3495)" fill="#F7BF6C"/>
<rect x="7.40039" y="6.30038" width="2" height="3.88889" rx="1" transform="rotate(135 7.40039 6.30038)" fill="#F7BF6C"/>
<rect x="28" y="13" width="2" height="4" rx="1" transform="rotate(90 28 13)" fill="#F7BF6C"/>
<rect x="4" y="13" width="2" height="4" rx="1" transform="rotate(90 4 13)" fill="#F7BF6C"/>
<rect x="23.3496" y="3.55054" width="2" height="3.88889" rx="1" transform="rotate(45 23.3496 3.55054)" fill="#F7BF6C"/>
<rect x="6.30029" y="20.5997" width="2" height="3.88889" rx="1" transform="rotate(45 6.30029 20.5997)" fill="#F7BF6C"/>
</svg>
