<svg width="107" height="78" viewBox="0 0 107 78" fill="none" xmlns="http://www.w3.org/2000/svg">
<path d="M54.7622 23.2042C56.8804 20.0566 61.5123 20.0566 63.6305 23.2042C65.5037 25.9878 68.8618 27.3787 72.1546 26.735C75.8782 26.0071 79.1534 29.2824 78.4255 33.0059C77.7818 36.2987 79.1728 39.6568 81.9563 41.53C85.1039 43.6482 85.1039 48.2801 81.9563 50.3984C79.1728 52.2716 77.7818 55.6297 78.4255 58.9224C79.1534 62.646 75.8782 65.9212 72.1546 65.1933C68.8618 64.5496 65.5037 65.9406 63.6305 68.7241C61.5123 71.8718 56.8804 71.8718 54.7622 68.7241C52.889 65.9406 49.5309 64.5496 46.2381 65.1933C42.5146 65.9212 39.2393 62.646 39.9672 58.9224C40.6109 55.6297 39.2199 52.2716 36.4364 50.3984C33.2888 48.2801 33.2888 43.6482 36.4364 41.53C39.2199 39.6568 40.6109 36.2987 39.9672 33.0059C39.2393 29.2824 42.5146 26.0071 46.2381 26.735C49.5309 27.3787 52.889 25.9878 54.7622 23.2042Z" fill="#FFFBF4" stroke="#1A293D" stroke-width="3"/>
<circle cx="59.545" cy="45.616" r="10.0982" fill="#F7BF6C"/>
<path d="M98.9603 16.273C97.4719 19.0663 95.5419 21.2005 93.6944 22.4211C91.7915 23.6783 90.3168 23.7773 89.4193 23.299C88.5217 22.8208 87.7815 21.5415 87.7638 19.2609C87.7467 17.0466 88.4418 14.2544 89.9302 11.4611C91.4187 8.6679 93.3487 6.53372 95.1962 5.31309C97.0991 4.05588 98.5737 3.95684 99.4713 4.43513C100.369 4.91342 101.109 6.1927 101.127 8.4733C101.144 10.6875 100.449 13.4798 98.9603 16.273Z" fill="#8A9F4F" stroke="#1A293D" stroke-width="3"/>
<path d="M12.1395 63.2367C15.1869 62.3817 18.0632 62.3013 20.2223 62.7927C22.4461 63.2988 23.537 64.296 23.8117 65.2753C24.0865 66.2545 23.6736 67.6737 22.0378 69.2628C20.4495 70.8057 17.9512 72.2333 14.9038 73.0884C11.8564 73.9435 8.98007 74.0239 6.82098 73.5325C4.59719 73.0264 3.50631 72.0291 3.23155 71.0499C2.95678 70.0707 3.36964 68.6515 5.00552 67.0624C6.59381 65.5195 9.09211 64.0918 12.1395 63.2367Z" fill="#8A9F4F" stroke="#1A293D" stroke-width="3"/>
</svg>
