<svg width="855" height="627" viewBox="0 0 855 627" fill="none" xmlns="http://www.w3.org/2000/svg">
<mask id="mask0_467_1194" style="mask-type:alpha" maskUnits="userSpaceOnUse" x="0" y="0" width="855" height="627">
<rect x="1" y="1" width="853" height="625" rx="49" fill="#7DC3E1" stroke="#7DC3E1" stroke-width="2"/>
</mask>
<g mask="url(#mask0_467_1194)">
<path d="M-4.59766 15L-6.29234 34.069L12.8183 32.9356L10.0786 50.9285L28.1443 48.7189L25.4046 66.7118L43.8186 64.861" stroke="#F7BF6C" stroke-width="5" stroke-linecap="round"/>
<path d="M62.1328 147.977L61.673 136.109L73.4791 137.402L72.3385 126.169L83.4639 128.097L82.3233 116.864L93.6755 118.581" stroke="#F7BF6C" stroke-width="5" stroke-linecap="round"/>
<path d="M67.201 59.25C67.7783 58.25 69.2217 58.25 69.799 59.25L85.8205 87C86.3979 88 85.6762 89.25 84.5215 89.25H52.4785C51.3238 89.25 50.6021 88 51.1795 87L67.201 59.25Z" stroke="#A6C550" stroke-width="3"/>
<path d="M-5.15347 154.224C-5.82014 154.609 -6.65347 154.128 -6.65347 153.358L-8.65347 153.358L-6.65347 153.358L-6.65347 133.057C-6.65347 132.287 -5.82014 131.806 -5.15347 132.191L12.428 142.341C13.0947 142.726 13.0947 143.688 12.428 144.073L-5.15347 154.224Z" stroke="#A6C550" stroke-width="4"/>
<circle cx="59.5" cy="15.5" r="13" stroke="#BD93C0" stroke-width="5"/>
<circle cx="111" cy="148" r="9" fill="#BD93C0"/>
<line x1="127.5" y1="92.5" x2="127.5" y2="112.5" stroke="#EF6E6E" stroke-width="5" stroke-linecap="round"/>
<line x1="137.5" y1="102.5" x2="117.5" y2="102.5" stroke="#EF6E6E" stroke-width="5" stroke-linecap="round"/>
<mask id="path-10-inside-1_467_1194" fill="white">
<rect x="102" y="31" width="26" height="26" rx="2"/>
</mask>
<rect x="102" y="31" width="26" height="26" rx="2" stroke="#7DC3E1" stroke-width="10" mask="url(#path-10-inside-1_467_1194)"/>
<path d="M27.1243 99.069C27.7686 97.3278 30.2314 97.3278 30.8757 99.069L33.5425 106.276C33.7451 106.823 34.1767 107.255 34.7241 107.458L41.931 110.124C43.6722 110.769 43.6722 113.231 41.931 113.876L34.7241 116.542C34.1767 116.745 33.7451 117.177 33.5425 117.724L30.8757 124.931C30.2314 126.672 27.7686 126.672 27.1243 124.931L24.4575 117.724C24.2549 117.177 23.8233 116.745 23.2759 116.542L16.069 113.876C14.3278 113.231 14.3278 110.769 16.069 110.124L23.2759 107.458C23.8233 107.255 24.2549 106.823 24.4575 106.276L27.1243 99.069Z" fill="#F7A66C"/>
<path d="M-4.5957 487.244L-6.29039 506.313L12.8202 505.179L10.0806 523.172L28.1462 520.963L25.4066 538.955L43.8206 537.105" stroke="#F7BF6C" stroke-width="5" stroke-linecap="round"/>
<path d="M62.1348 620.22L61.675 608.352L73.4811 609.646L72.3405 598.413L83.4658 600.341L82.3252 589.108L93.6775 590.824" stroke="#F7BF6C" stroke-width="5" stroke-linecap="round"/>
<path d="M67.2029 531.494C67.7803 530.494 69.2236 530.494 69.801 531.494L85.8225 559.244C86.3998 560.244 85.6781 561.494 84.5234 561.494H52.4805C51.3258 561.494 50.6041 560.244 51.1814 559.244L67.2029 531.494Z" stroke="#A6C550" stroke-width="3"/>
<path d="M-5.15152 626.468C-5.81818 626.852 -6.65152 626.371 -6.65151 625.602L-8.65152 625.602L-6.65152 625.602L-6.65152 605.3C-6.65151 604.53 -5.81818 604.049 -5.15152 604.434L12.43 614.585C13.0966 614.97 13.0966 615.932 12.43 616.317L-5.15152 626.468Z" stroke="#A6C550" stroke-width="4"/>
<circle cx="59.502" cy="487.744" r="13" stroke="#BD93C0" stroke-width="5"/>
<circle cx="111.002" cy="620.244" r="9" fill="#BD93C0"/>
<line x1="127.502" y1="564.744" x2="127.502" y2="584.744" stroke="#EF6E6E" stroke-width="5" stroke-linecap="round"/>
<line x1="137.502" y1="574.744" x2="117.502" y2="574.744" stroke="#EF6E6E" stroke-width="5" stroke-linecap="round"/>
<mask id="path-20-inside-2_467_1194" fill="white">
<rect x="102.002" y="503.244" width="26" height="26" rx="2"/>
</mask>
<rect x="102.002" y="503.244" width="26" height="26" rx="2" stroke="#7DC3E1" stroke-width="10" mask="url(#path-20-inside-2_467_1194)"/>
<path d="M27.1262 571.313C27.7706 569.571 30.2333 569.571 30.8777 571.313L33.5444 578.52C33.747 579.067 34.1786 579.499 34.7261 579.701L41.9329 582.368C43.6742 583.012 43.6742 585.475 41.9329 586.119L34.7261 588.786C34.1786 588.989 33.747 589.42 33.5444 589.968L30.8777 597.175C30.2333 598.916 27.7706 598.916 27.1262 597.175L24.4595 589.968C24.2569 589.42 23.8253 588.989 23.2778 588.786L16.071 586.119C14.3297 585.475 14.3297 583.012 16.071 582.368L23.2778 579.701C23.8253 579.499 24.2569 579.067 24.4595 578.52L27.1262 571.313Z" fill="#F7A66C"/>
<path d="M-4.5957 329.829L-6.29039 348.898L12.8202 347.765L10.0806 365.758L28.1462 363.548L25.4066 381.541L43.8206 379.69" stroke="#F7BF6C" stroke-width="5" stroke-linecap="round"/>
<path d="M62.1348 462.806L61.675 450.938L73.4811 452.232L72.3405 440.998L83.4658 442.926L82.3252 431.693L93.6775 433.41" stroke="#F7BF6C" stroke-width="5" stroke-linecap="round"/>
<path d="M67.2029 374.079C67.7803 373.079 69.2236 373.079 69.801 374.079L85.8225 401.829C86.3998 402.829 85.6781 404.079 84.5234 404.079H52.4805C51.3258 404.079 50.6041 402.829 51.1814 401.829L67.2029 374.079Z" stroke="#A6C550" stroke-width="3"/>
<path d="M-5.15152 469.053C-5.81818 469.438 -6.65152 468.957 -6.65151 468.187L-8.65152 468.187L-6.65152 468.187L-6.65152 447.886C-6.65151 447.116 -5.81818 446.635 -5.15152 447.02L12.43 457.17C13.0966 457.555 13.0966 458.517 12.43 458.902L-5.15152 469.053Z" stroke="#A6C550" stroke-width="4"/>
<circle cx="59.502" cy="330.329" r="13" stroke="#BD93C0" stroke-width="5"/>
<circle cx="111.002" cy="462.829" r="9" fill="#BD93C0"/>
<line x1="127.502" y1="407.329" x2="127.502" y2="427.329" stroke="#EF6E6E" stroke-width="5" stroke-linecap="round"/>
<line x1="137.502" y1="417.329" x2="117.502" y2="417.329" stroke="#EF6E6E" stroke-width="5" stroke-linecap="round"/>
<mask id="path-30-inside-3_467_1194" fill="white">
<rect x="102.002" y="345.829" width="26" height="26" rx="2"/>
</mask>
<rect x="102.002" y="345.829" width="26" height="26" rx="2" stroke="#7DC3E1" stroke-width="10" mask="url(#path-30-inside-3_467_1194)"/>
<path d="M27.1262 413.898C27.7706 412.157 30.2333 412.157 30.8777 413.898L33.5444 421.105C33.747 421.652 34.1786 422.084 34.7261 422.287L41.9329 424.953C43.6742 425.598 43.6742 428.06 41.9329 428.705L34.7261 431.372C34.1786 431.574 33.747 432.006 33.5444 432.553L30.8777 439.76C30.2333 441.501 27.7706 441.501 27.1262 439.76L24.4595 432.553C24.2569 432.006 23.8253 431.574 23.2778 431.372L16.071 428.705C14.3297 428.06 14.3297 425.598 16.071 424.953L23.2778 422.287C23.8253 422.084 24.2569 421.652 24.4595 421.105L27.1262 413.898Z" fill="#F7A66C"/>
<path d="M-4.59766 172.415L-6.29234 191.484L12.8183 190.35L10.0786 208.343L28.1443 206.133L25.4046 224.126L43.8186 222.276" stroke="#F7BF6C" stroke-width="5" stroke-linecap="round"/>
<path d="M62.1328 305.391L61.673 293.523L73.4791 294.817L72.3385 283.584L83.4639 285.512L82.3233 274.278L93.6755 275.995" stroke="#F7BF6C" stroke-width="5" stroke-linecap="round"/>
<path d="M67.201 216.665C67.7783 215.665 69.2217 215.665 69.799 216.665L85.8205 244.415C86.3979 245.415 85.6762 246.665 84.5215 246.665H52.4785C51.3238 246.665 50.6021 245.415 51.1795 244.415L67.201 216.665Z" stroke="#A6C550" stroke-width="3"/>
<path d="M-5.15347 311.638C-5.82014 312.023 -6.65347 311.542 -6.65347 310.772L-8.65347 310.772L-6.65347 310.772L-6.65347 290.471C-6.65347 289.701 -5.82014 289.22 -5.15347 289.605L12.428 299.756C13.0947 300.141 13.0947 301.103 12.428 301.488L-5.15347 311.638Z" stroke="#A6C550" stroke-width="4"/>
<circle cx="59.5" cy="172.915" r="13" stroke="#BD93C0" stroke-width="5"/>
<circle cx="111" cy="305.415" r="9" fill="#BD93C0"/>
<line x1="127.5" y1="249.915" x2="127.5" y2="269.915" stroke="#EF6E6E" stroke-width="5" stroke-linecap="round"/>
<line x1="137.5" y1="259.915" x2="117.5" y2="259.915" stroke="#EF6E6E" stroke-width="5" stroke-linecap="round"/>
<mask id="path-40-inside-4_467_1194" fill="white">
<rect x="102" y="188.415" width="26" height="26" rx="2"/>
</mask>
<rect x="102" y="188.415" width="26" height="26" rx="2" stroke="#7DC3E1" stroke-width="10" mask="url(#path-40-inside-4_467_1194)"/>
<path d="M27.1243 256.484C27.7686 254.742 30.2314 254.742 30.8757 256.484L33.5425 263.69C33.7451 264.238 34.1767 264.669 34.7241 264.872L41.931 267.539C43.6722 268.183 43.6722 270.646 41.931 271.29L34.7241 273.957C34.1767 274.16 33.7451 274.591 33.5425 275.139L30.8757 282.346C30.2314 284.087 27.7686 284.087 27.1243 282.346L24.4575 275.139C24.2549 274.591 23.8233 274.16 23.2759 273.957L16.069 271.29C14.3278 270.646 14.3278 268.183 16.069 267.539L23.2759 264.872C23.8233 264.669 24.2549 264.238 24.4575 263.69L27.1243 256.484Z" fill="#F7A66C"/>
<path d="M379.402 15L377.708 34.069L396.818 32.9356L394.079 50.9285L412.144 48.7189L409.405 66.7118L427.819 64.861" stroke="#F7BF6C" stroke-width="5" stroke-linecap="round"/>
<path d="M446.133 147.977L445.673 136.109L457.479 137.402L456.339 126.169L467.464 128.097L466.323 116.864L477.676 118.581" stroke="#F7BF6C" stroke-width="5" stroke-linecap="round"/>
<path d="M451.201 59.25C451.778 58.25 453.222 58.25 453.799 59.25L469.821 87C470.398 88 469.676 89.25 468.521 89.25H436.479C435.324 89.25 434.602 88 435.179 87L451.201 59.25Z" stroke="#A6C550" stroke-width="3"/>
<path d="M378.847 154.224C378.18 154.609 377.347 154.128 377.347 153.358L375.347 153.358L377.347 153.358L377.347 133.057C377.347 132.287 378.18 131.806 378.847 132.191L396.428 142.341C397.095 142.726 397.095 143.688 396.428 144.073L378.847 154.224Z" stroke="#A6C550" stroke-width="4"/>
<circle cx="443.5" cy="15.5" r="13" stroke="#BD93C0" stroke-width="5"/>
<circle cx="495" cy="148" r="9" fill="#BD93C0"/>
<line x1="511.5" y1="92.5" x2="511.5" y2="112.5" stroke="#EF6E6E" stroke-width="5" stroke-linecap="round"/>
<line x1="521.5" y1="102.5" x2="501.5" y2="102.5" stroke="#EF6E6E" stroke-width="5" stroke-linecap="round"/>
<line x1="352.606" y1="55.4287" x2="366.748" y2="69.5708" stroke="#EF6E6E" stroke-width="5" stroke-linecap="round"/>
<line x1="366.748" y1="55.4291" x2="352.606" y2="69.5712" stroke="#EF6E6E" stroke-width="5" stroke-linecap="round"/>
<rect x="344.078" y="96.8076" width="26" height="26" rx="2" transform="rotate(-15 344.078 96.8076)" fill="#7DC3E1"/>
<mask id="path-53-inside-5_467_1194" fill="white">
<rect x="486" y="31" width="26" height="26" rx="2"/>
</mask>
<rect x="486" y="31" width="26" height="26" rx="2" stroke="#7DC3E1" stroke-width="10" mask="url(#path-53-inside-5_467_1194)"/>
<path d="M411.124 99.069C411.769 97.3278 414.231 97.3278 414.876 99.069L417.542 106.276C417.745 106.823 418.177 107.255 418.724 107.458L425.931 110.124C427.672 110.769 427.672 113.231 425.931 113.876L418.724 116.542C418.177 116.745 417.745 117.177 417.542 117.724L414.876 124.931C414.231 126.672 411.769 126.672 411.124 124.931L408.458 117.724C408.255 117.177 407.823 116.745 407.276 116.542L400.069 113.876C398.328 113.231 398.328 110.769 400.069 110.124L407.276 107.458C407.823 107.255 408.255 106.823 408.458 106.276L411.124 99.069Z" fill="#F7A66C"/>
<path d="M379.404 487.244L377.71 506.313L396.82 505.179L394.081 523.172L412.146 520.963L409.407 538.955L427.821 537.105" stroke="#F7BF6C" stroke-width="5" stroke-linecap="round"/>
<path d="M446.135 620.22L445.675 608.352L457.481 609.646L456.34 598.413L467.466 600.341L466.325 589.108L477.677 590.824" stroke="#F7BF6C" stroke-width="5" stroke-linecap="round"/>
<path d="M451.203 531.494C451.78 530.494 453.224 530.494 453.801 531.494L469.822 559.244C470.4 560.244 469.678 561.494 468.523 561.494H436.48C435.326 561.494 434.604 560.244 435.181 559.244L451.203 531.494Z" stroke="#A6C550" stroke-width="3"/>
<path d="M378.848 626.468C378.182 626.852 377.348 626.371 377.348 625.602L375.348 625.602L377.348 625.602L377.348 605.3C377.348 604.53 378.182 604.049 378.848 604.434L396.43 614.585C397.097 614.97 397.097 615.932 396.43 616.317L378.848 626.468Z" stroke="#A6C550" stroke-width="4"/>
<circle cx="443.502" cy="487.744" r="13" stroke="#BD93C0" stroke-width="5"/>
<circle cx="495.002" cy="620.244" r="9" fill="#BD93C0"/>
<line x1="511.502" y1="564.744" x2="511.502" y2="584.744" stroke="#EF6E6E" stroke-width="5" stroke-linecap="round"/>
<line x1="521.502" y1="574.744" x2="501.502" y2="574.744" stroke="#EF6E6E" stroke-width="5" stroke-linecap="round"/>
<line x1="352.608" y1="527.672" x2="366.75" y2="541.815" stroke="#EF6E6E" stroke-width="5" stroke-linecap="round"/>
<line x1="366.75" y1="527.673" x2="352.608" y2="541.815" stroke="#EF6E6E" stroke-width="5" stroke-linecap="round"/>
<rect x="344.08" y="569.051" width="26" height="26" rx="2" transform="rotate(-15 344.08 569.051)" fill="#7DC3E1"/>
<mask id="path-66-inside-6_467_1194" fill="white">
<rect x="486.002" y="503.244" width="26" height="26" rx="2"/>
</mask>
<rect x="486.002" y="503.244" width="26" height="26" rx="2" stroke="#7DC3E1" stroke-width="10" mask="url(#path-66-inside-6_467_1194)"/>
<path d="M411.126 571.313C411.771 569.571 414.233 569.571 414.878 571.313L417.544 578.52C417.747 579.067 418.179 579.499 418.726 579.701L425.933 582.368C427.674 583.012 427.674 585.475 425.933 586.119L418.726 588.786C418.179 588.989 417.747 589.42 417.544 589.968L414.878 597.175C414.233 598.916 411.771 598.916 411.126 597.175L408.459 589.968C408.257 589.42 407.825 588.989 407.278 588.786L400.071 586.119C398.33 585.475 398.33 583.012 400.071 582.368L407.278 579.701C407.825 579.499 408.257 579.067 408.459 578.52L411.126 571.313Z" fill="#F7A66C"/>
<path d="M379.404 329.829L377.71 348.898L396.82 347.765L394.081 365.758L412.146 363.548L409.407 381.541L427.821 379.69" stroke="#F7BF6C" stroke-width="5" stroke-linecap="round"/>
<path d="M446.135 462.806L445.675 450.938L457.481 452.232L456.34 440.998L467.466 442.926L466.325 431.693L477.677 433.41" stroke="#F7BF6C" stroke-width="5" stroke-linecap="round"/>
<path d="M451.203 374.079C451.78 373.079 453.224 373.079 453.801 374.079L469.822 401.829C470.4 402.829 469.678 404.079 468.523 404.079H436.48C435.326 404.079 434.604 402.829 435.181 401.829L451.203 374.079Z" stroke="#A6C550" stroke-width="3"/>
<path d="M378.848 469.053C378.182 469.438 377.348 468.957 377.348 468.187L375.348 468.187L377.348 468.187L377.348 447.886C377.348 447.116 378.182 446.635 378.848 447.02L396.43 457.17C397.097 457.555 397.097 458.517 396.43 458.902L378.848 469.053Z" stroke="#A6C550" stroke-width="4"/>
<circle cx="443.502" cy="330.329" r="13" stroke="#BD93C0" stroke-width="5"/>
<circle cx="495.002" cy="462.829" r="9" fill="#BD93C0"/>
<line x1="511.502" y1="407.329" x2="511.502" y2="427.329" stroke="#EF6E6E" stroke-width="5" stroke-linecap="round"/>
<line x1="521.502" y1="417.329" x2="501.502" y2="417.329" stroke="#EF6E6E" stroke-width="5" stroke-linecap="round"/>
<line x1="352.608" y1="370.258" x2="366.75" y2="384.4" stroke="#EF6E6E" stroke-width="5" stroke-linecap="round"/>
<line x1="366.75" y1="370.258" x2="352.608" y2="384.4" stroke="#EF6E6E" stroke-width="5" stroke-linecap="round"/>
<rect x="344.08" y="411.637" width="26" height="26" rx="2" transform="rotate(-15 344.08 411.637)" fill="#7DC3E1"/>
<mask id="path-79-inside-7_467_1194" fill="white">
<rect x="486.002" y="345.829" width="26" height="26" rx="2"/>
</mask>
<rect x="486.002" y="345.829" width="26" height="26" rx="2" stroke="#7DC3E1" stroke-width="10" mask="url(#path-79-inside-7_467_1194)"/>
<path d="M411.126 413.898C411.771 412.157 414.233 412.157 414.878 413.898L417.544 421.105C417.747 421.652 418.179 422.084 418.726 422.287L425.933 424.953C427.674 425.598 427.674 428.06 425.933 428.705L418.726 431.372C418.179 431.574 417.747 432.006 417.544 432.553L414.878 439.76C414.233 441.501 411.771 441.501 411.126 439.76L408.459 432.553C408.257 432.006 407.825 431.574 407.278 431.372L400.071 428.705C398.33 428.06 398.33 425.598 400.071 424.953L407.278 422.287C407.825 422.084 408.257 421.652 408.459 421.105L411.126 413.898Z" fill="#F7A66C"/>
<path d="M379.404 172.415L377.71 191.484L396.82 190.35L394.081 208.343L412.146 206.133L409.407 224.126L427.821 222.276" stroke="#F7BF6C" stroke-width="5" stroke-linecap="round"/>
<path d="M446.135 305.391L445.675 293.523L457.481 294.817L456.34 283.584L467.466 285.512L466.325 274.278L477.677 275.995" stroke="#F7BF6C" stroke-width="5" stroke-linecap="round"/>
<path d="M451.203 216.665C451.78 215.665 453.224 215.665 453.801 216.665L469.822 244.415C470.4 245.415 469.678 246.665 468.523 246.665H436.48C435.326 246.665 434.604 245.415 435.181 244.415L451.203 216.665Z" stroke="#A6C550" stroke-width="3"/>
<path d="M378.848 311.638C378.182 312.023 377.348 311.542 377.348 310.772L375.348 310.772L377.348 310.772L377.348 290.471C377.348 289.701 378.182 289.22 378.848 289.605L396.43 299.756C397.097 300.141 397.097 301.103 396.43 301.488L378.848 311.638Z" stroke="#A6C550" stroke-width="4"/>
<circle cx="443.502" cy="172.915" r="13" stroke="#BD93C0" stroke-width="5"/>
<circle cx="495.002" cy="305.415" r="9" fill="#BD93C0"/>
<line x1="511.502" y1="249.915" x2="511.502" y2="269.915" stroke="#EF6E6E" stroke-width="5" stroke-linecap="round"/>
<line x1="521.502" y1="259.915" x2="501.502" y2="259.915" stroke="#EF6E6E" stroke-width="5" stroke-linecap="round"/>
<line x1="352.608" y1="212.843" x2="366.75" y2="226.985" stroke="#EF6E6E" stroke-width="5" stroke-linecap="round"/>
<line x1="366.75" y1="212.844" x2="352.608" y2="226.986" stroke="#EF6E6E" stroke-width="5" stroke-linecap="round"/>
<rect x="344.08" y="254.222" width="26" height="26" rx="2" transform="rotate(-15 344.08 254.222)" fill="#7DC3E1"/>
<mask id="path-92-inside-8_467_1194" fill="white">
<rect x="486.002" y="188.415" width="26" height="26" rx="2"/>
</mask>
<rect x="486.002" y="188.415" width="26" height="26" rx="2" stroke="#7DC3E1" stroke-width="10" mask="url(#path-92-inside-8_467_1194)"/>
<path d="M411.126 256.484C411.771 254.742 414.233 254.742 414.878 256.484L417.544 263.69C417.747 264.238 418.179 264.669 418.726 264.872L425.933 267.539C427.674 268.183 427.674 270.646 425.933 271.29L418.726 273.957C418.179 274.16 417.747 274.591 417.544 275.139L414.878 282.346C414.233 284.087 411.771 284.087 411.126 282.346L408.459 275.139C408.257 274.591 407.825 274.16 407.278 273.957L400.071 271.29C398.33 270.646 398.33 268.183 400.071 267.539L407.278 264.872C407.825 264.669 408.257 264.238 408.459 263.69L411.126 256.484Z" fill="#F7A66C"/>
<path d="M571.402 15L569.708 34.069L588.818 32.9356L586.079 50.9285L604.144 48.7189L601.405 66.7118L619.819 64.861" stroke="#F7BF6C" stroke-width="5" stroke-linecap="round"/>
<path d="M638.133 147.977L637.673 136.109L649.479 137.402L648.339 126.169L659.464 128.097L658.323 116.864L669.676 118.581" stroke="#F7BF6C" stroke-width="5" stroke-linecap="round"/>
<path d="M643.201 59.25C643.778 58.25 645.222 58.25 645.799 59.25L661.821 87C662.398 88 661.676 89.25 660.521 89.25H628.479C627.324 89.25 626.602 88 627.179 87L643.201 59.25Z" stroke="#A6C550" stroke-width="3"/>
<path d="M570.847 154.224C570.18 154.609 569.347 154.128 569.347 153.358L567.347 153.358L569.347 153.358L569.347 133.057C569.347 132.287 570.18 131.806 570.847 132.191L588.428 142.341C589.095 142.726 589.095 143.688 588.428 144.073L570.847 154.224Z" stroke="#A6C550" stroke-width="4"/>
<circle cx="635.5" cy="15.5" r="13" stroke="#BD93C0" stroke-width="5"/>
<circle cx="687" cy="148" r="9" fill="#BD93C0"/>
<line x1="703.5" y1="92.5" x2="703.5" y2="112.5" stroke="#EF6E6E" stroke-width="5" stroke-linecap="round"/>
<line x1="713.5" y1="102.5" x2="693.5" y2="102.5" stroke="#EF6E6E" stroke-width="5" stroke-linecap="round"/>
<line x1="544.606" y1="55.4287" x2="558.748" y2="69.5708" stroke="#EF6E6E" stroke-width="5" stroke-linecap="round"/>
<line x1="558.748" y1="55.4291" x2="544.606" y2="69.5712" stroke="#EF6E6E" stroke-width="5" stroke-linecap="round"/>
<rect x="536.078" y="96.8076" width="26" height="26" rx="2" transform="rotate(-15 536.078 96.8076)" fill="#7DC3E1"/>
<mask id="path-105-inside-9_467_1194" fill="white">
<rect x="678" y="31" width="26" height="26" rx="2"/>
</mask>
<rect x="678" y="31" width="26" height="26" rx="2" stroke="#7DC3E1" stroke-width="10" mask="url(#path-105-inside-9_467_1194)"/>
<path d="M603.124 99.069C603.769 97.3278 606.231 97.3278 606.876 99.069L609.542 106.276C609.745 106.823 610.177 107.255 610.724 107.458L617.931 110.124C619.672 110.769 619.672 113.231 617.931 113.876L610.724 116.542C610.177 116.745 609.745 117.177 609.542 117.724L606.876 124.931C606.231 126.672 603.769 126.672 603.124 124.931L600.458 117.724C600.255 117.177 599.823 116.745 599.276 116.542L592.069 113.876C590.328 113.231 590.328 110.769 592.069 110.124L599.276 107.458C599.823 107.255 600.255 106.823 600.458 106.276L603.124 99.069Z" fill="#F7A66C"/>
<path d="M571.404 487.244L569.71 506.313L588.82 505.179L586.081 523.172L604.146 520.963L601.407 538.955L619.821 537.105" stroke="#F7BF6C" stroke-width="5" stroke-linecap="round"/>
<path d="M638.135 620.22L637.675 608.352L649.481 609.646L648.34 598.413L659.466 600.341L658.325 589.108L669.677 590.824" stroke="#F7BF6C" stroke-width="5" stroke-linecap="round"/>
<path d="M643.203 531.494C643.78 530.494 645.224 530.494 645.801 531.494L661.822 559.244C662.4 560.244 661.678 561.494 660.523 561.494H628.48C627.326 561.494 626.604 560.244 627.181 559.244L643.203 531.494Z" stroke="#A6C550" stroke-width="3"/>
<path d="M570.848 626.468C570.182 626.852 569.348 626.371 569.348 625.602L567.348 625.602L569.348 625.602L569.348 605.3C569.348 604.53 570.182 604.049 570.848 604.434L588.43 614.585C589.097 614.97 589.097 615.932 588.43 616.317L570.848 626.468Z" stroke="#A6C550" stroke-width="4"/>
<circle cx="635.502" cy="487.744" r="13" stroke="#BD93C0" stroke-width="5"/>
<circle cx="687.002" cy="620.244" r="9" fill="#BD93C0"/>
<line x1="703.502" y1="564.744" x2="703.502" y2="584.744" stroke="#EF6E6E" stroke-width="5" stroke-linecap="round"/>
<line x1="713.502" y1="574.744" x2="693.502" y2="574.744" stroke="#EF6E6E" stroke-width="5" stroke-linecap="round"/>
<line x1="544.608" y1="527.672" x2="558.75" y2="541.815" stroke="#EF6E6E" stroke-width="5" stroke-linecap="round"/>
<line x1="558.75" y1="527.673" x2="544.608" y2="541.815" stroke="#EF6E6E" stroke-width="5" stroke-linecap="round"/>
<rect x="536.08" y="569.051" width="26" height="26" rx="2" transform="rotate(-15 536.08 569.051)" fill="#7DC3E1"/>
<mask id="path-118-inside-10_467_1194" fill="white">
<rect x="678.002" y="503.244" width="26" height="26" rx="2"/>
</mask>
<rect x="678.002" y="503.244" width="26" height="26" rx="2" stroke="#7DC3E1" stroke-width="10" mask="url(#path-118-inside-10_467_1194)"/>
<path d="M603.126 571.313C603.771 569.571 606.233 569.571 606.878 571.313L609.544 578.52C609.747 579.067 610.179 579.499 610.726 579.701L617.933 582.368C619.674 583.012 619.674 585.475 617.933 586.119L610.726 588.786C610.179 588.989 609.747 589.42 609.544 589.968L606.878 597.175C606.233 598.916 603.771 598.916 603.126 597.175L600.459 589.968C600.257 589.42 599.825 588.989 599.278 588.786L592.071 586.119C590.33 585.475 590.33 583.012 592.071 582.368L599.278 579.701C599.825 579.499 600.257 579.067 600.459 578.52L603.126 571.313Z" fill="#F7A66C"/>
<path d="M571.404 329.829L569.71 348.898L588.82 347.765L586.081 365.758L604.146 363.548L601.407 381.541L619.821 379.69" stroke="#F7BF6C" stroke-width="5" stroke-linecap="round"/>
<path d="M638.135 462.806L637.675 450.938L649.481 452.232L648.34 440.998L659.466 442.926L658.325 431.693L669.677 433.41" stroke="#F7BF6C" stroke-width="5" stroke-linecap="round"/>
<path d="M643.203 374.079C643.78 373.079 645.224 373.079 645.801 374.079L661.822 401.829C662.4 402.829 661.678 404.079 660.523 404.079H628.48C627.326 404.079 626.604 402.829 627.181 401.829L643.203 374.079Z" stroke="#A6C550" stroke-width="3"/>
<path d="M570.848 469.053C570.182 469.438 569.348 468.957 569.348 468.187L567.348 468.187L569.348 468.187L569.348 447.886C569.348 447.116 570.182 446.635 570.848 447.02L588.43 457.17C589.097 457.555 589.097 458.517 588.43 458.902L570.848 469.053Z" stroke="#A6C550" stroke-width="4"/>
<circle cx="635.502" cy="330.329" r="13" stroke="#BD93C0" stroke-width="5"/>
<circle cx="687.002" cy="462.829" r="9" fill="#BD93C0"/>
<line x1="703.502" y1="407.329" x2="703.502" y2="427.329" stroke="#EF6E6E" stroke-width="5" stroke-linecap="round"/>
<line x1="713.502" y1="417.329" x2="693.502" y2="417.329" stroke="#EF6E6E" stroke-width="5" stroke-linecap="round"/>
<line x1="544.608" y1="370.258" x2="558.75" y2="384.4" stroke="#EF6E6E" stroke-width="5" stroke-linecap="round"/>
<line x1="558.75" y1="370.258" x2="544.608" y2="384.4" stroke="#EF6E6E" stroke-width="5" stroke-linecap="round"/>
<rect x="536.08" y="411.637" width="26" height="26" rx="2" transform="rotate(-15 536.08 411.637)" fill="#7DC3E1"/>
<mask id="path-131-inside-11_467_1194" fill="white">
<rect x="678.002" y="345.829" width="26" height="26" rx="2"/>
</mask>
<rect x="678.002" y="345.829" width="26" height="26" rx="2" stroke="#7DC3E1" stroke-width="10" mask="url(#path-131-inside-11_467_1194)"/>
<path d="M603.126 413.898C603.771 412.157 606.233 412.157 606.878 413.898L609.544 421.105C609.747 421.652 610.179 422.084 610.726 422.287L617.933 424.953C619.674 425.598 619.674 428.06 617.933 428.705L610.726 431.372C610.179 431.574 609.747 432.006 609.544 432.553L606.878 439.76C606.233 441.501 603.771 441.501 603.126 439.76L600.459 432.553C600.257 432.006 599.825 431.574 599.278 431.372L592.071 428.705C590.33 428.06 590.33 425.598 592.071 424.953L599.278 422.287C599.825 422.084 600.257 421.652 600.459 421.105L603.126 413.898Z" fill="#F7A66C"/>
<path d="M571.404 172.415L569.71 191.484L588.82 190.35L586.081 208.343L604.146 206.133L601.407 224.126L619.821 222.276" stroke="#F7BF6C" stroke-width="5" stroke-linecap="round"/>
<path d="M638.135 305.391L637.675 293.523L649.481 294.817L648.34 283.584L659.466 285.512L658.325 274.278L669.677 275.995" stroke="#F7BF6C" stroke-width="5" stroke-linecap="round"/>
<path d="M643.203 216.665C643.78 215.665 645.224 215.665 645.801 216.665L661.822 244.415C662.4 245.415 661.678 246.665 660.523 246.665H628.48C627.326 246.665 626.604 245.415 627.181 244.415L643.203 216.665Z" stroke="#A6C550" stroke-width="3"/>
<path d="M570.848 311.638C570.182 312.023 569.348 311.542 569.348 310.772L567.348 310.772L569.348 310.772L569.348 290.471C569.348 289.701 570.182 289.22 570.848 289.605L588.43 299.756C589.097 300.141 589.097 301.103 588.43 301.488L570.848 311.638Z" stroke="#A6C550" stroke-width="4"/>
<circle cx="635.502" cy="172.915" r="13" stroke="#BD93C0" stroke-width="5"/>
<circle cx="687.002" cy="305.415" r="9" fill="#BD93C0"/>
<line x1="703.502" y1="249.915" x2="703.502" y2="269.915" stroke="#EF6E6E" stroke-width="5" stroke-linecap="round"/>
<line x1="713.502" y1="259.915" x2="693.502" y2="259.915" stroke="#EF6E6E" stroke-width="5" stroke-linecap="round"/>
<line x1="544.608" y1="212.843" x2="558.75" y2="226.985" stroke="#EF6E6E" stroke-width="5" stroke-linecap="round"/>
<line x1="558.75" y1="212.844" x2="544.608" y2="226.986" stroke="#EF6E6E" stroke-width="5" stroke-linecap="round"/>
<rect x="536.08" y="254.222" width="26" height="26" rx="2" transform="rotate(-15 536.08 254.222)" fill="#7DC3E1"/>
<mask id="path-144-inside-12_467_1194" fill="white">
<rect x="678.002" y="188.415" width="26" height="26" rx="2"/>
</mask>
<rect x="678.002" y="188.415" width="26" height="26" rx="2" stroke="#7DC3E1" stroke-width="10" mask="url(#path-144-inside-12_467_1194)"/>
<path d="M603.126 256.484C603.771 254.742 606.233 254.742 606.878 256.484L609.544 263.69C609.747 264.238 610.179 264.669 610.726 264.872L617.933 267.539C619.674 268.183 619.674 270.646 617.933 271.29L610.726 273.957C610.179 274.16 609.747 274.591 609.544 275.139L606.878 282.346C606.233 284.087 603.771 284.087 603.126 282.346L600.459 275.139C600.257 274.591 599.825 274.16 599.278 273.957L592.071 271.29C590.33 270.646 590.33 268.183 592.071 267.539L599.278 264.872C599.825 264.669 600.257 264.238 600.459 263.69L603.126 256.484Z" fill="#F7A66C"/>
<path d="M763.402 15L761.708 34.069L780.818 32.9356L778.079 50.9285L796.144 48.7189L793.405 66.7118L811.819 64.861" stroke="#F7BF6C" stroke-width="5" stroke-linecap="round"/>
<path d="M830.133 147.977L829.673 136.109L841.479 137.402L840.339 126.169L851.464 128.097L850.323 116.864L861.676 118.581" stroke="#F7BF6C" stroke-width="5" stroke-linecap="round"/>
<path d="M835.201 59.25C835.778 58.25 837.222 58.25 837.799 59.25L853.821 87C854.398 88 853.676 89.25 852.521 89.25H820.479C819.324 89.25 818.602 88 819.179 87L835.201 59.25Z" stroke="#A6C550" stroke-width="3"/>
<path d="M762.847 154.224C762.18 154.609 761.347 154.128 761.347 153.358L759.347 153.358L761.347 153.358L761.347 133.057C761.347 132.287 762.18 131.806 762.847 132.191L780.428 142.341C781.095 142.726 781.095 143.688 780.428 144.073L762.847 154.224Z" stroke="#A6C550" stroke-width="4"/>
<circle cx="827.5" cy="15.5" r="13" stroke="#BD93C0" stroke-width="5"/>
<line x1="736.606" y1="55.4287" x2="750.748" y2="69.5708" stroke="#EF6E6E" stroke-width="5" stroke-linecap="round"/>
<line x1="750.748" y1="55.4291" x2="736.606" y2="69.5712" stroke="#EF6E6E" stroke-width="5" stroke-linecap="round"/>
<rect x="728.078" y="96.8076" width="26" height="26" rx="2" transform="rotate(-15 728.078 96.8076)" fill="#7DC3E1"/>
<path d="M795.124 99.069C795.769 97.3278 798.231 97.3278 798.876 99.069L801.542 106.276C801.745 106.823 802.177 107.255 802.724 107.458L809.931 110.124C811.672 110.769 811.672 113.231 809.931 113.876L802.724 116.542C802.177 116.745 801.745 117.177 801.542 117.724L798.876 124.931C798.231 126.672 795.769 126.672 795.124 124.931L792.458 117.724C792.255 117.177 791.823 116.745 791.276 116.542L784.069 113.876C782.328 113.231 782.328 110.769 784.069 110.124L791.276 107.458C791.823 107.255 792.255 106.823 792.458 106.276L795.124 99.069Z" fill="#F7A66C"/>
<path d="M763.404 487.244L761.71 506.313L780.82 505.179L778.081 523.172L796.146 520.963L793.407 538.955L811.821 537.105" stroke="#F7BF6C" stroke-width="5" stroke-linecap="round"/>
<path d="M830.135 620.22L829.675 608.352L841.481 609.646L840.34 598.413L851.466 600.341L850.325 589.108L861.677 590.824" stroke="#F7BF6C" stroke-width="5" stroke-linecap="round"/>
<path d="M835.203 531.494C835.78 530.494 837.224 530.494 837.801 531.494L853.822 559.244C854.4 560.244 853.678 561.494 852.523 561.494H820.48C819.326 561.494 818.604 560.244 819.181 559.244L835.203 531.494Z" stroke="#A6C550" stroke-width="3"/>
<path d="M762.848 626.468C762.182 626.852 761.348 626.371 761.348 625.602L759.348 625.602L761.348 625.602L761.348 605.3C761.348 604.53 762.182 604.049 762.848 604.434L780.43 614.585C781.097 614.97 781.097 615.932 780.43 616.317L762.848 626.468Z" stroke="#A6C550" stroke-width="4"/>
<circle cx="827.502" cy="487.744" r="13" stroke="#BD93C0" stroke-width="5"/>
<line x1="736.608" y1="527.672" x2="750.75" y2="541.815" stroke="#EF6E6E" stroke-width="5" stroke-linecap="round"/>
<line x1="750.75" y1="527.673" x2="736.608" y2="541.815" stroke="#EF6E6E" stroke-width="5" stroke-linecap="round"/>
<rect x="728.08" y="569.051" width="26" height="26" rx="2" transform="rotate(-15 728.08 569.051)" fill="#7DC3E1"/>
<path d="M795.126 571.313C795.771 569.571 798.233 569.571 798.878 571.313L801.544 578.52C801.747 579.067 802.179 579.499 802.726 579.701L809.933 582.368C811.674 583.012 811.674 585.475 809.933 586.119L802.726 588.786C802.179 588.989 801.747 589.42 801.544 589.968L798.878 597.175C798.233 598.916 795.771 598.916 795.126 597.175L792.459 589.968C792.257 589.42 791.825 588.989 791.278 588.786L784.071 586.119C782.33 585.475 782.33 583.012 784.071 582.368L791.278 579.701C791.825 579.499 792.257 579.067 792.459 578.52L795.126 571.313Z" fill="#F7A66C"/>
<path d="M763.404 329.829L761.71 348.898L780.82 347.765L778.081 365.758L796.146 363.548L793.407 381.541L811.821 379.69" stroke="#F7BF6C" stroke-width="5" stroke-linecap="round"/>
<path d="M830.135 462.806L829.675 450.938L841.481 452.232L840.34 440.998L851.466 442.926L850.325 431.693L861.677 433.41" stroke="#F7BF6C" stroke-width="5" stroke-linecap="round"/>
<path d="M835.203 374.079C835.78 373.079 837.224 373.079 837.801 374.079L853.822 401.829C854.4 402.829 853.678 404.079 852.523 404.079H820.48C819.326 404.079 818.604 402.829 819.181 401.829L835.203 374.079Z" stroke="#A6C550" stroke-width="3"/>
<path d="M762.848 469.053C762.182 469.438 761.348 468.957 761.348 468.187L759.348 468.187L761.348 468.187L761.348 447.886C761.348 447.116 762.182 446.635 762.848 447.02L780.43 457.17C781.097 457.555 781.097 458.517 780.43 458.902L762.848 469.053Z" stroke="#A6C550" stroke-width="4"/>
<circle cx="827.502" cy="330.329" r="13" stroke="#BD93C0" stroke-width="5"/>
<line x1="736.608" y1="370.258" x2="750.75" y2="384.4" stroke="#EF6E6E" stroke-width="5" stroke-linecap="round"/>
<line x1="750.75" y1="370.258" x2="736.608" y2="384.4" stroke="#EF6E6E" stroke-width="5" stroke-linecap="round"/>
<rect x="728.08" y="411.637" width="26" height="26" rx="2" transform="rotate(-15 728.08 411.637)" fill="#7DC3E1"/>
<path d="M795.126 413.898C795.771 412.157 798.233 412.157 798.878 413.898L801.544 421.105C801.747 421.652 802.179 422.084 802.726 422.287L809.933 424.953C811.674 425.598 811.674 428.06 809.933 428.705L802.726 431.372C802.179 431.574 801.747 432.006 801.544 432.553L798.878 439.76C798.233 441.501 795.771 441.501 795.126 439.76L792.459 432.553C792.257 432.006 791.825 431.574 791.278 431.372L784.071 428.705C782.33 428.06 782.33 425.598 784.071 424.953L791.278 422.287C791.825 422.084 792.257 421.652 792.459 421.105L795.126 413.898Z" fill="#F7A66C"/>
<path d="M763.404 172.415L761.71 191.484L780.82 190.35L778.081 208.343L796.146 206.133L793.407 224.126L811.821 222.276" stroke="#F7BF6C" stroke-width="5" stroke-linecap="round"/>
<path d="M830.135 305.391L829.675 293.523L841.481 294.817L840.34 283.584L851.466 285.512L850.325 274.278L861.677 275.995" stroke="#F7BF6C" stroke-width="5" stroke-linecap="round"/>
<path d="M835.203 216.665C835.78 215.665 837.224 215.665 837.801 216.665L853.822 244.415C854.4 245.415 853.678 246.665 852.523 246.665H820.48C819.326 246.665 818.604 245.415 819.181 244.415L835.203 216.665Z" stroke="#A6C550" stroke-width="3"/>
<path d="M762.848 311.638C762.182 312.023 761.348 311.542 761.348 310.772L759.348 310.772L761.348 310.772L761.348 290.471C761.348 289.701 762.182 289.22 762.848 289.605L780.43 299.756C781.097 300.141 781.097 301.103 780.43 301.488L762.848 311.638Z" stroke="#A6C550" stroke-width="4"/>
<circle cx="827.502" cy="172.915" r="13" stroke="#BD93C0" stroke-width="5"/>
<line x1="736.608" y1="212.843" x2="750.75" y2="226.985" stroke="#EF6E6E" stroke-width="5" stroke-linecap="round"/>
<line x1="750.75" y1="212.844" x2="736.608" y2="226.986" stroke="#EF6E6E" stroke-width="5" stroke-linecap="round"/>
<rect x="728.08" y="254.222" width="26" height="26" rx="2" transform="rotate(-15 728.08 254.222)" fill="#7DC3E1"/>
<path d="M795.126 256.484C795.771 254.742 798.233 254.742 798.878 256.484L801.544 263.69C801.747 264.238 802.179 264.669 802.726 264.872L809.933 267.539C811.674 268.183 811.674 270.646 809.933 271.29L802.726 273.957C802.179 274.16 801.747 274.591 801.544 275.139L798.878 282.346C798.233 284.087 795.771 284.087 795.126 282.346L792.459 275.139C792.257 274.591 791.825 274.16 791.278 273.957L784.071 271.29C782.33 270.646 782.33 268.183 784.071 267.539L791.278 264.872C791.825 264.669 792.257 264.238 792.459 263.69L795.126 256.484Z" fill="#F7A66C"/>
<path d="M187.402 15L185.708 34.069L204.818 32.9356L202.079 50.9285L220.144 48.7189L217.405 66.7118L235.819 64.861" stroke="#F7BF6C" stroke-width="5" stroke-linecap="round"/>
<path d="M254.133 147.977L253.673 136.109L265.479 137.402L264.339 126.169L275.464 128.097L274.323 116.864L285.676 118.581" stroke="#F7BF6C" stroke-width="5" stroke-linecap="round"/>
<path d="M259.201 59.25C259.778 58.25 261.222 58.25 261.799 59.25L277.821 87C278.398 88 277.676 89.25 276.521 89.25H244.479C243.324 89.25 242.602 88 243.179 87L259.201 59.25Z" stroke="#A6C550" stroke-width="3"/>
<path d="M186.847 154.224C186.18 154.609 185.347 154.128 185.347 153.358L183.347 153.358L185.347 153.358L185.347 133.057C185.347 132.287 186.18 131.806 186.847 132.191L204.428 142.341C205.095 142.726 205.095 143.688 204.428 144.073L186.847 154.224Z" stroke="#A6C550" stroke-width="4"/>
<circle cx="251.5" cy="15.5" r="13" stroke="#BD93C0" stroke-width="5"/>
<circle cx="303" cy="148" r="9" fill="#BD93C0"/>
<line x1="319.5" y1="92.5" x2="319.5" y2="112.5" stroke="#EF6E6E" stroke-width="5" stroke-linecap="round"/>
<line x1="329.5" y1="102.5" x2="309.5" y2="102.5" stroke="#EF6E6E" stroke-width="5" stroke-linecap="round"/>
<line x1="160.606" y1="55.4287" x2="174.748" y2="69.5708" stroke="#EF6E6E" stroke-width="5" stroke-linecap="round"/>
<line x1="174.748" y1="55.4291" x2="160.606" y2="69.5712" stroke="#EF6E6E" stroke-width="5" stroke-linecap="round"/>
<rect x="152.078" y="96.8076" width="26" height="26" rx="2" transform="rotate(-15 152.078 96.8076)" fill="#7DC3E1"/>
<mask id="path-193-inside-13_467_1194" fill="white">
<rect x="294" y="31" width="26" height="26" rx="2"/>
</mask>
<rect x="294" y="31" width="26" height="26" rx="2" stroke="#7DC3E1" stroke-width="10" mask="url(#path-193-inside-13_467_1194)"/>
<path d="M219.124 99.069C219.769 97.3278 222.231 97.3278 222.876 99.069L225.542 106.276C225.745 106.823 226.177 107.255 226.724 107.458L233.931 110.124C235.672 110.769 235.672 113.231 233.931 113.876L226.724 116.542C226.177 116.745 225.745 117.177 225.542 117.724L222.876 124.931C222.231 126.672 219.769 126.672 219.124 124.931L216.458 117.724C216.255 117.177 215.823 116.745 215.276 116.542L208.069 113.876C206.328 113.231 206.328 110.769 208.069 110.124L215.276 107.458C215.823 107.255 216.255 106.823 216.458 106.276L219.124 99.069Z" fill="#F7A66C"/>
<path d="M187.404 487.244L185.71 506.313L204.82 505.179L202.081 523.172L220.146 520.963L217.407 538.955L235.821 537.105" stroke="#F7BF6C" stroke-width="5" stroke-linecap="round"/>
<path d="M254.135 620.22L253.675 608.352L265.481 609.646L264.34 598.413L275.466 600.341L274.325 589.108L285.677 590.824" stroke="#F7BF6C" stroke-width="5" stroke-linecap="round"/>
<path d="M259.203 531.494C259.78 530.494 261.224 530.494 261.801 531.494L277.822 559.244C278.4 560.244 277.678 561.494 276.523 561.494H244.48C243.326 561.494 242.604 560.244 243.181 559.244L259.203 531.494Z" stroke="#A6C550" stroke-width="3"/>
<path d="M186.848 626.468C186.182 626.852 185.348 626.371 185.348 625.602L183.348 625.602L185.348 625.602L185.348 605.3C185.348 604.53 186.182 604.049 186.848 604.434L204.43 614.585C205.097 614.97 205.097 615.932 204.43 616.317L186.848 626.468Z" stroke="#A6C550" stroke-width="4"/>
<circle cx="251.502" cy="487.744" r="13" stroke="#BD93C0" stroke-width="5"/>
<circle cx="303.002" cy="620.244" r="9" fill="#BD93C0"/>
<line x1="319.502" y1="564.744" x2="319.502" y2="584.744" stroke="#EF6E6E" stroke-width="5" stroke-linecap="round"/>
<line x1="329.502" y1="574.744" x2="309.502" y2="574.744" stroke="#EF6E6E" stroke-width="5" stroke-linecap="round"/>
<line x1="160.608" y1="527.672" x2="174.75" y2="541.815" stroke="#EF6E6E" stroke-width="5" stroke-linecap="round"/>
<line x1="174.75" y1="527.673" x2="160.608" y2="541.815" stroke="#EF6E6E" stroke-width="5" stroke-linecap="round"/>
<rect x="152.08" y="569.051" width="26" height="26" rx="2" transform="rotate(-15 152.08 569.051)" fill="#7DC3E1"/>
<mask id="path-206-inside-14_467_1194" fill="white">
<rect x="294.002" y="503.244" width="26" height="26" rx="2"/>
</mask>
<rect x="294.002" y="503.244" width="26" height="26" rx="2" stroke="#7DC3E1" stroke-width="10" mask="url(#path-206-inside-14_467_1194)"/>
<path d="M219.126 571.313C219.771 569.571 222.233 569.571 222.878 571.313L225.544 578.52C225.747 579.067 226.179 579.499 226.726 579.701L233.933 582.368C235.674 583.012 235.674 585.475 233.933 586.119L226.726 588.786C226.179 588.989 225.747 589.42 225.544 589.968L222.878 597.175C222.233 598.916 219.771 598.916 219.126 597.175L216.459 589.968C216.257 589.42 215.825 588.989 215.278 588.786L208.071 586.119C206.33 585.475 206.33 583.012 208.071 582.368L215.278 579.701C215.825 579.499 216.257 579.067 216.459 578.52L219.126 571.313Z" fill="#F7A66C"/>
<path d="M187.404 329.829L185.71 348.898L204.82 347.765L202.081 365.758L220.146 363.548L217.407 381.541L235.821 379.69" stroke="#F7BF6C" stroke-width="5" stroke-linecap="round"/>
<path d="M254.135 462.806L253.675 450.938L265.481 452.232L264.34 440.998L275.466 442.926L274.325 431.693L285.677 433.41" stroke="#F7BF6C" stroke-width="5" stroke-linecap="round"/>
<path d="M259.203 374.079C259.78 373.079 261.224 373.079 261.801 374.079L277.822 401.829C278.4 402.829 277.678 404.079 276.523 404.079H244.48C243.326 404.079 242.604 402.829 243.181 401.829L259.203 374.079Z" stroke="#A6C550" stroke-width="3"/>
<path d="M186.848 469.053C186.182 469.438 185.348 468.957 185.348 468.187L183.348 468.187L185.348 468.187L185.348 447.886C185.348 447.116 186.182 446.635 186.848 447.02L204.43 457.17C205.097 457.555 205.097 458.517 204.43 458.902L186.848 469.053Z" stroke="#A6C550" stroke-width="4"/>
<circle cx="251.502" cy="330.329" r="13" stroke="#BD93C0" stroke-width="5"/>
<circle cx="303.002" cy="462.829" r="9" fill="#BD93C0"/>
<line x1="319.502" y1="407.329" x2="319.502" y2="427.329" stroke="#EF6E6E" stroke-width="5" stroke-linecap="round"/>
<line x1="329.502" y1="417.329" x2="309.502" y2="417.329" stroke="#EF6E6E" stroke-width="5" stroke-linecap="round"/>
<line x1="160.608" y1="370.258" x2="174.75" y2="384.4" stroke="#EF6E6E" stroke-width="5" stroke-linecap="round"/>
<line x1="174.75" y1="370.258" x2="160.608" y2="384.4" stroke="#EF6E6E" stroke-width="5" stroke-linecap="round"/>
<rect x="152.08" y="411.637" width="26" height="26" rx="2" transform="rotate(-15 152.08 411.637)" fill="#7DC3E1"/>
<mask id="path-219-inside-15_467_1194" fill="white">
<rect x="294.002" y="345.829" width="26" height="26" rx="2"/>
</mask>
<rect x="294.002" y="345.829" width="26" height="26" rx="2" stroke="#7DC3E1" stroke-width="10" mask="url(#path-219-inside-15_467_1194)"/>
<path d="M219.126 413.898C219.771 412.157 222.233 412.157 222.878 413.898L225.544 421.105C225.747 421.652 226.179 422.084 226.726 422.287L233.933 424.953C235.674 425.598 235.674 428.06 233.933 428.705L226.726 431.372C226.179 431.574 225.747 432.006 225.544 432.553L222.878 439.76C222.233 441.501 219.771 441.501 219.126 439.76L216.459 432.553C216.257 432.006 215.825 431.574 215.278 431.372L208.071 428.705C206.33 428.06 206.33 425.598 208.071 424.953L215.278 422.287C215.825 422.084 216.257 421.652 216.459 421.105L219.126 413.898Z" fill="#F7A66C"/>
<path d="M187.404 172.415L185.71 191.484L204.82 190.35L202.081 208.343L220.146 206.133L217.407 224.126L235.821 222.276" stroke="#F7BF6C" stroke-width="5" stroke-linecap="round"/>
<path d="M254.135 305.391L253.675 293.523L265.481 294.817L264.34 283.584L275.466 285.512L274.325 274.278L285.677 275.995" stroke="#F7BF6C" stroke-width="5" stroke-linecap="round"/>
<path d="M259.203 216.665C259.78 215.665 261.224 215.665 261.801 216.665L277.822 244.415C278.4 245.415 277.678 246.665 276.523 246.665H244.48C243.326 246.665 242.604 245.415 243.181 244.415L259.203 216.665Z" stroke="#A6C550" stroke-width="3"/>
<path d="M186.848 311.638C186.182 312.023 185.348 311.542 185.348 310.772L183.348 310.772L185.348 310.772L185.348 290.471C185.348 289.701 186.182 289.22 186.848 289.605L204.43 299.756C205.097 300.141 205.097 301.103 204.43 301.488L186.848 311.638Z" stroke="#A6C550" stroke-width="4"/>
<circle cx="251.502" cy="172.915" r="13" stroke="#BD93C0" stroke-width="5"/>
<circle cx="303.002" cy="305.415" r="9" fill="#BD93C0"/>
<line x1="319.502" y1="249.915" x2="319.502" y2="269.915" stroke="#EF6E6E" stroke-width="5" stroke-linecap="round"/>
<line x1="329.502" y1="259.915" x2="309.502" y2="259.915" stroke="#EF6E6E" stroke-width="5" stroke-linecap="round"/>
<line x1="160.608" y1="212.843" x2="174.75" y2="226.985" stroke="#EF6E6E" stroke-width="5" stroke-linecap="round"/>
<line x1="174.75" y1="212.844" x2="160.608" y2="226.986" stroke="#EF6E6E" stroke-width="5" stroke-linecap="round"/>
<rect x="152.08" y="254.222" width="26" height="26" rx="2" transform="rotate(-15 152.08 254.222)" fill="#7DC3E1"/>
<mask id="path-232-inside-16_467_1194" fill="white">
<rect x="294.002" y="188.415" width="26" height="26" rx="2"/>
</mask>
<rect x="294.002" y="188.415" width="26" height="26" rx="2" stroke="#7DC3E1" stroke-width="10" mask="url(#path-232-inside-16_467_1194)"/>
<path d="M219.126 256.484C219.771 254.742 222.233 254.742 222.878 256.484L225.544 263.69C225.747 264.238 226.179 264.669 226.726 264.872L233.933 267.539C235.674 268.183 235.674 270.646 233.933 271.29L226.726 273.957C226.179 274.16 225.747 274.591 225.544 275.139L222.878 282.346C222.233 284.087 219.771 284.087 219.126 282.346L216.459 275.139C216.257 274.591 215.825 274.16 215.278 273.957L208.071 271.29C206.33 270.646 206.33 268.183 208.071 267.539L215.278 264.872C215.825 264.669 216.257 264.238 216.459 263.69L219.126 256.484Z" fill="#F7A66C"/>
</g>
</svg>
