<svg width="91" height="91" viewBox="0 0 91 91" fill="none" xmlns="http://www.w3.org/2000/svg">
<path d="M42.1672 3.73446C42.5546 -0.303333 48.4454 -0.303331 48.8328 3.73446C49.1631 7.17639 53.8588 7.92012 55.2365 4.74871C56.8528 1.02826 62.4553 2.84861 61.576 6.80851C60.8265 10.184 65.0626 12.3424 67.3529 9.75198C70.0396 6.71306 74.8054 10.1756 72.7455 13.67C70.9896 16.6487 74.3513 20.0104 77.33 18.2545C80.8244 16.1946 84.2869 20.9604 81.248 23.6471C78.6576 25.9374 80.816 30.1735 84.1915 29.424C88.1514 28.5448 89.9717 34.1472 86.2513 35.7635C83.0799 37.1412 83.8236 41.8369 87.2655 42.1672C91.3033 42.5546 91.3033 48.4454 87.2655 48.8328C83.8236 49.1631 83.0799 53.8588 86.2513 55.2365C89.9717 56.8528 88.1514 62.4553 84.1915 61.576C80.816 60.8265 78.6576 65.0626 81.248 67.3529C84.2869 70.0396 80.8244 74.8054 77.33 72.7455C74.3513 70.9896 70.9896 74.3513 72.7455 77.33C74.8054 80.8244 70.0396 84.2869 67.3529 81.248C65.0626 78.6576 60.8265 80.816 61.576 84.1915C62.4553 88.1514 56.8528 89.9717 55.2365 86.2513C53.8588 83.0799 49.1631 83.8236 48.8328 87.2655C48.4454 91.3033 42.5546 91.3033 42.1672 87.2655C41.8369 83.8236 37.1412 83.0799 35.7635 86.2513C34.1472 89.9717 28.5448 88.1514 29.424 84.1915C30.1735 80.816 25.9374 78.6576 23.6471 81.248C20.9604 84.2869 16.1946 80.8244 18.2545 77.33C20.0104 74.3513 16.6487 70.9896 13.67 72.7455C10.1756 74.8054 6.71306 70.0396 9.75198 67.3529C12.3424 65.0626 10.184 60.8265 6.80851 61.576C2.84861 62.4553 1.02826 56.8528 4.74871 55.2365C7.92012 53.8588 7.17639 49.1631 3.73446 48.8328C-0.303333 48.4454 -0.303331 42.5546 3.73446 42.1672C7.17639 41.8369 7.92012 37.1412 4.74871 35.7635C1.02826 34.1472 2.84861 28.5448 6.80851 29.424C10.184 30.1735 12.3424 25.9374 9.75198 23.6471C6.71306 20.9604 10.1756 16.1946 13.67 18.2545C16.6487 20.0104 20.0104 16.6487 18.2545 13.67C16.1946 10.1756 20.9604 6.71306 23.6471 9.75198C25.9374 12.3424 30.1735 10.184 29.424 6.80851C28.5448 2.84861 34.1472 1.02826 35.7635 4.74871C37.1412 7.92012 41.8369 7.17639 42.1672 3.73446Z" fill="#F7BF6C"/>
</svg>
