<svg width="156" height="97" viewBox="0 0 156 97" fill="none" xmlns="http://www.w3.org/2000/svg">
<circle cx="29.1044" cy="62.9643" r="29.1044" fill="#F7BF6C"/>
<rect x="9.76172" y="17.2803" width="18.6421" height="32.7187" rx="9.32103" transform="rotate(-3.17283 9.76172 17.2803)" fill="#F7BF6C"/>
<rect x="71.4297" y="17.8809" width="18.6421" height="55.2237" rx="9.32103" transform="rotate(69.2632 71.4297 17.8809)" fill="#F7BF6C"/>
<rect x="4.94531" y="49.4111" width="48.9149" height="49.7984" rx="24.4575" transform="rotate(-17.1331 4.94531 49.4111)" fill="#F7BF6C"/>
<circle cx="102.149" cy="62.9643" r="29.1044" fill="#F7BF6C"/>
<rect x="82.8066" y="17.2803" width="18.6421" height="32.7187" rx="9.32103" transform="rotate(-3.17283 82.8066 17.2803)" fill="#F7BF6C"/>
<rect x="144.475" y="17.8809" width="18.6421" height="55.2237" rx="9.32103" transform="rotate(69.2632 144.475 17.8809)" fill="#F7BF6C"/>
<rect x="81.1158" y="51.0637" width="43.9149" height="44.7984" rx="21.9575" transform="rotate(-17.1331 81.1158 51.0637)" fill="#F7BF6C" stroke="#E45959" stroke-width="5"/>
<path d="M43.1816 60.3013L59.541 54.4043" stroke="#EF6E6E" stroke-width="5" stroke-linecap="round"/>
<path d="M46.4141 70.9541L62.7734 65.0571" stroke="#EF6E6E" stroke-width="5" stroke-linecap="round"/>
<path d="M84.8398 69.0518L101.199 63.1548" stroke="#EF6E6E" stroke-width="5" stroke-linecap="round"/>
<path d="M88.0742 79.7041L104.434 73.8071" stroke="#EF6E6E" stroke-width="5" stroke-linecap="round"/>
<path d="M66.7959 5.06901C67.4402 3.32778 69.903 3.32778 70.5473 5.06901L72.103 9.27335C72.3056 9.82079 72.7372 10.2524 73.2847 10.455L77.489 12.0107C79.2302 12.655 79.2302 15.1178 77.489 15.7621L73.2847 17.3179C72.7372 17.5205 72.3056 17.9521 72.103 18.4995L70.5473 22.7038C69.903 24.4451 67.4402 24.4451 66.7959 22.7039L65.2401 18.4995C65.0376 17.9521 64.6059 17.5205 64.0585 17.3179L59.8542 15.7621C58.1129 15.1178 58.1129 12.655 59.8542 12.0107L64.0585 10.455C64.6059 10.2524 65.0376 9.82079 65.2401 9.27335L66.7959 5.06901Z" fill="#BD93C0"/>
<path d="M142.128 9.92165C142.778 8.19394 145.222 8.19394 145.872 9.92165L146.81 12.416C147.016 12.9622 147.45 13.3915 147.998 13.5911L150.44 14.4799C152.195 15.1185 152.195 17.6001 150.44 18.2387L147.998 19.1275C147.45 19.3271 147.016 19.7564 146.81 20.3027L145.872 22.797C145.222 24.5247 142.778 24.5247 142.128 22.797L141.19 20.3027C140.984 19.7564 140.551 19.3271 140.002 19.1275L137.56 18.2387C135.805 17.6001 135.805 15.1185 137.56 14.4799L140.002 13.5911C140.551 13.3915 140.984 12.9622 141.19 12.416L142.128 9.92165Z" fill="#7DC3E1"/>
</svg>
